<svg width="103" height="21" viewBox="0 0 103 21" fill="none" xmlns="http://www.w3.org/2000/svg">
<path d="M13.56 12.664L17.9 20H10.62L7.54 13.56H6.728V20H0.4V0.679998H8.8C11.18 0.679998 13 1.1 14.4 2.08C15.8 3.06 16.78 4.74 16.78 6.84C16.78 10.76 14.4 12.16 13.56 12.664ZM10.396 7.12C10.396 6.28 9.976 6 9.696 5.804C9.416 5.58 8.996 5.44 8.296 5.44H6.7V8.8H8.296C8.996 8.8 9.444 8.66 9.696 8.464C10.004 8.24 10.396 7.96 10.396 7.12ZM33.3109 12.58C33.3109 13.42 33.2269 14.344 33.2269 14.344H23.8469C24.0709 15.66 25.4709 15.94 26.5909 15.94C27.7109 15.94 29.2509 15.66 30.5109 14.82L32.8909 17.9C32.1909 18.46 30.2309 20.336 25.6669 20.336C21.1309 20.336 17.6309 17.788 17.6309 12.888C17.6309 7.988 21.2709 5.44 25.7509 5.44C30.2309 5.44 33.3109 8.24 33.3109 12.58ZM23.8469 11.04H27.4869C27.4309 10.06 26.7309 9.36 25.6669 9.36C24.6309 9.36 23.9309 10.06 23.8469 11.04ZM49.7445 12.58C49.7445 13.42 49.6605 14.344 49.6605 14.344H40.2805C40.5045 15.66 41.9045 15.94 43.0245 15.94C44.1445 15.94 45.6845 15.66 46.9445 14.82L49.3245 17.9C48.6245 18.46 46.6645 20.336 42.1005 20.336C37.5645 20.336 34.0645 17.788 34.0645 12.888C34.0645 7.988 37.7045 5.44 42.1845 5.44C46.6645 5.44 49.7445 8.24 49.7445 12.58ZM40.2805 11.04H43.9205C43.8645 10.06 43.1645 9.36 42.1005 9.36C41.0645 9.36 40.3645 10.06 40.2805 11.04ZM63.2941 15.52C63.2941 17.06 62.5381 18.264 61.4181 19.104C60.2981 19.944 58.8141 20.364 56.7981 20.364C54.7821 20.364 52.3181 20 50.1901 18.376L52.3181 14.68C54.2781 15.968 56.5741 16.192 56.9661 16.192C57.3581 16.192 57.7781 16.136 57.7781 15.744C57.7781 15.24 55.9861 14.848 55.3981 14.68C54.8101 14.512 54.2781 14.344 53.7181 14.12C53.1581 13.924 51.0581 13.168 51.0581 10.2C51.0581 7.232 53.6621 5.412 57.0781 5.412C60.4941 5.412 62.3421 6.56 63.1261 7.064L61.4181 10.592C59.9901 9.696 58.3661 9.248 57.3021 9.248C56.7421 9.248 56.5181 9.416 56.5181 9.724C56.5181 10.06 57.2181 10.256 58.0581 10.48C58.8981 10.732 59.3741 10.844 60.0741 11.124C60.7741 11.404 61.5581 11.824 62.1181 12.384C62.6781 12.944 63.2941 13.98 63.2941 15.52ZM80.6627 12.888C80.6627 17.648 77.1627 20.336 72.4027 20.336C67.6427 20.336 64.1427 17.648 64.1427 12.888C64.1427 8.128 67.6427 5.44 72.4027 5.44C77.1627 5.44 80.6627 8.128 80.6627 12.888ZM74.3627 12.804C74.3627 11.32 73.6627 10.34 72.4027 10.34C71.1427 10.34 70.4427 11.32 70.4427 12.804C70.4427 14.26 71.1427 15.24 72.4027 15.24C73.6627 15.24 74.3627 14.26 74.3627 12.804ZM92.5659 0.679998L92.2859 4.88C92.2859 4.88 91.3059 4.684 90.4659 4.684C89.6259 4.684 89.2059 4.88 89.2059 5.44V5.72H92.0059V10.34H89.2059V20H82.9059V10.34H81.2259V5.72H82.9059V5.58C82.9059 4.18 83.1859 2.64 84.2219 1.66C85.2859 0.679998 86.8259 0.259999 88.7859 0.259999C90.7459 0.259999 92.2859 0.623999 92.5659 0.679998ZM102.786 5.72V10.34H99.8459V14.26C99.8459 15.1 100.266 15.24 100.966 15.24C101.666 15.24 102.366 15.044 102.366 15.044L102.646 19.86C102.086 20 100.546 20.336 98.7259 20.336C96.9059 20.336 95.6459 19.86 94.8059 19.104C93.9659 18.32 93.5459 17.06 93.5459 14.96V10.34H91.5859V5.72H93.5459V2.22H99.8459V5.72H102.786Z" fill="#E25F3E"/>
</svg>
